<?xml version="1.0" standalone="no"?>
<!DOCTYPE svg PUBLIC "-//W3C//DTD SVG 1.1//EN" "http://www.w3.org/Graphics/SVG/1.1/DTD/svg11.dtd" >
<!--
2013-9-30: Created.
-->
<svg>
<metadata>
Created by iconfont
</metadata>
<defs>

<font id="iconfont" horiz-adv-x="1024" >
  <font-face
    font-family="iconfont"
    font-weight="500"
    font-stretch="normal"
    units-per-em="1024"
    ascent="896"
    descent="-128"
  />
    <missing-glyph />
    
    <glyph glyph-name="reload" unicode="&#59055;" d="M884.3 667.8l-52.92-41.4a392.82 392.82 0 0 1-310.08 151.32 393.48 393.48 0 0 1-393.66-393.24 393.66 393.66 0 0 1 763.56-135.36 7.5 7.5 0 0 1-4.56 9.6l-53.16 18.3a7.5 7.5 0 0 1-9.48-4.5 320.76 320.76 0 0 0-74.64-116.52 320.4 320.4 0 0 0-227.88-94.5A320.04 320.04 0 0 0 293.54 156a320.76 320.76 0 0 0-94.38 228.12 320.82 320.82 0 0 0 94.38 228.06 320.4 320.4 0 0 0 227.88 94.5 320.04 320.04 0 0 0 228-94.5c9.24-9.3 18-19.14 26.04-29.4l-56.46-44.1a7.5 7.5 0 0 1 2.82-13.2l164.64-40.32a7.5 7.5 0 0 1 9.24 7.2l0.78 169.62a7.56 7.56 0 0 1-12.18 5.82z"  horiz-adv-x="1024" />

    
    <glyph glyph-name="move-right" unicode="&#58909;" d="M665.28125 134.78437499999995l228.6 228.6c5.653125 5.653125 8.325 13.1625 8.184375 20.615625a28.2375 28.2375 0 0 1-8.184375 20.615625L665.28125 633.215625c-11.053125 11.053125-29.1375 11.053125-40.190625 0s-11.053125-29.1375 0-40.190625l181.125-181.125H150.340625c-15.6375 0-28.434375-12.796875-28.434375-28.434375s12.796875-28.434375 28.434375-28.434375h654.778125l-180.05625-180.05625c-11.053125-11.053125-11.053125-29.1375 0-40.190625s29.1375-11.053125 40.190625 0z"  horiz-adv-x="1024" />

    
    <glyph glyph-name="move-left" unicode="&#58911;" d="M398.909375 134.78437499999995a28.490625 28.490625 0 0 1 0 40.190625L218.853125 355.03125h654.778125c15.6375 0 28.434375 12.796875 28.434375 28.434375s-12.796875 28.434375-28.434375 28.434375H217.75625l181.125 181.125c11.053125 11.053125 11.053125 29.1375 0 40.190625s-29.1375 11.053125-40.190625 0l-228.6-228.6A28.2375 28.2375 0 0 1 121.90625 384c-0.140625-7.453125 2.53125-14.9625 8.184375-20.615625l228.6-228.6a28.490625 28.490625 0 0 1 40.190625 0z"  horiz-adv-x="1024" />

    
    <glyph glyph-name="setting" unicode="&#58950;" d="M234.19123151 350.67131675999997a119.41471209 119.41471209 0 0 1 30.51047533-51.57202801c22.67061905-22.66366676 52.82807352-35.1646421 84.89277019-35.1646421 32.06392418 0 62.22137867 12.48707076 84.8927702 35.17236685a119.47110286 119.47110286 0 0 1 29.93111896 49.57904021h407.81081763c19.47179665 0 35.31295752 15.81335172 35.31295752 35.31373 0 19.46407191-15.81257924 35.31295752-35.31295752 35.31295752H464.41141389a119.47882762 119.47882762 0 0 1-29.91721437 49.57981268 119.28107449 119.28107449 0 0 1-84.89972249 35.17159437c-32.06469667 0-62.22215115-12.48629828-84.89277019-35.17159437a119.41471209 119.41471209 0 0 1-30.51047533-51.57125554 35.13683295 35.13683295 0 0 1-11.68910362 1.99144286h-70.69698287a35.31990981 35.31990981 0 0 1 0-70.62668752h70.69698287c4.09643895 0 8.0306579 0.69986343 11.68910362 1.98526305z m555.68817221-208.78552527a119.42166438 119.42166438 0 0 1-30.5112478 51.57048306 119.28107449 119.28107449 0 0 1-84.89277021 35.16541459c-32.06469667 0-62.22137867-12.48707076-84.89277019-35.1715944a119.47110286 119.47110286 0 0 1-29.93111897-49.57981266H151.84067893c-19.47179665 0-35.31295752-15.81335172-35.31295753-35.31373 0-19.46407191 15.81257924-35.31295752 35.31295752-35.31295752h407.81776993a119.47110286 119.47110286 0 0 1 29.91721439-49.57981269C612.25400705 0.9715334999999641 642.41068904-11.5078125 674.47461325-11.5078125s62.22215115 12.48707076 84.89277018 35.17159437a119.41471209 119.41471209 0 0 1 30.51047533 51.57202802 35.13683295 35.13683295 0 0 1 11.68910362-1.99221533h70.69698287a35.31990981 35.31990981 0 0 1 0 70.62668752h-70.69698287c-4.09643895 0-8.0306579-0.69909097-11.68910362-1.98526306z m0 550.88491832a119.42166438 119.42166438 0 0 1-30.5112478 51.57125553A119.28107449 119.28107449 0 0 1 674.47538571 779.50737991c-32.06469667 0-62.22137867-12.48629828-84.89277019-35.17159437a119.47110286 119.47110286 0 0 1-29.93111897-49.57981268H151.84067893c-19.47179665 0-35.31295752-15.81257924-35.31295753-35.31295752 0-19.46484438 15.81257924-35.31295752 35.31295752-35.31295752h407.81776993a119.47110286 119.47110286 0 0 1 29.91721439-49.57981268c22.67834381-22.69224838 52.83502582-35.17236685 84.89972247-35.17236685s62.22215115 12.48707076 84.8927702 35.17236685a119.41471209 119.41471209 0 0 1 30.51047533 51.57125553 35.13683295 35.13683295 0 0 1 11.68910361-1.99144285h70.69698287a35.31990981 35.31990981 0 0 1 0 70.62591504h-70.69698287c-4.09643895 0-8.0306579-0.69909097-11.68910361-1.98449058zM384.55364045 349.03984779999996A49.11400953 49.11400953 0 0 0 349.59447703 334.56133418a49.11400953 49.11400953 0 0 0-34.9599359 14.47851363A49.11400953 49.11400953 0 0 0 300.15602751 383.99978371c0 13.20701858 5.14159847 25.62302153 14.47851362 34.9599359A49.11400953 49.11400953 0 0 0 349.59447703 433.43823323c13.20701858 0 25.62302153-5.14159847 34.95993591-14.47851362A49.11400953 49.11400953 0 0 0 399.03292656 383.99978371c0-13.20701858-5.14159847-25.62302153-14.47851362-34.95993591zM709.43532162 73.59584370000005a49.11400953 49.11400953 0 0 0-34.95993591-14.47774115 49.11400953 49.11400953 0 0 0-34.9599359 14.47774115 49.11400953 49.11400953 0 0 0-14.47851363 34.9599359c0 13.20779105 5.14159847 25.62302153 14.47851363 34.96070838a49.11400953 49.11400953 0 0 0 34.9599359 14.47774114c13.20701858 0 25.62302153-5.14159847 34.95993591-14.47774114a49.11400953 49.11400953 0 0 0 14.47851361-34.96070838c0-13.20701858-5.14159847-25.62302153-14.47851361-34.9599359z m0 550.88569077a49.11400953 49.11400953 0 0 0-34.95993591-14.47851362 49.11400953 49.11400953 0 0 0-34.9599359 14.47851362 49.11400953 49.11400953 0 0 0-14.47851363 34.95993591c0 13.20701858 5.14159847 25.62302153 14.47851363 34.95993591a49.11400953 49.11400953 0 0 0 34.9599359 14.47851362c13.20701858 0 25.62302153-5.14159847 34.95993591-14.47851362a49.11400953 49.11400953 0 0 0 14.47851361-34.95993591c0-13.20701858-5.14159847-25.62302153-14.47851361-34.95993591z"  horiz-adv-x="1024" />

    
    <glyph glyph-name="setting1" unicode="&#59184;" d="M614.76611353 408.25781275l244.81933594-244.81933593c11.86523438-12.91992162 17.79785156-27.42187525 17.79785156-43.63769557 0-16.28173803-5.93261719-30.52001928-17.79785156-42.84667994l-43.24218775-43.30810547a60.1171875 60.1171875 0 0 0-42.84667994-17.79785156 60.1171875 60.1171875 0 0 0-42.84667918 17.79785156L485.69873047 278.53125024999997c-46.86767578-19.11621119-94.13085938-23.99414037-141.72363307-14.69970753a241.45751953 241.45751953 0 0 0-125.57373047 67.23632812A241.45751953 241.45751953 0 0 0 151.23095728 456.50976588 244.88525365 244.88525365 0 0 0 165.93066406 598.23339818l116.67480469-116.67480468c11.86523438-11.79931666 26.10351563-17.73193385 42.84667994-17.73193309s31.3110349 5.93261719 43.63769481 17.79785156l42.51708984 42.45117137a61.04003932 61.04003932 0 0 1 17.79785156 43.63769557c0 16.74316432-5.93261719 31.04736328-17.79785156 42.84667994L294.93212865 727.36669897a244.88525365 244.88525365 0 0 0 141.72363307 14.69970753c47.65869141-9.22851588 89.51660182-31.640625 125.57373047-67.23632812a241.91894506 241.91894506 0 0 0 52.53662134-266.50634791z"  horiz-adv-x="1024" />

    
    <glyph glyph-name="setting2" unicode="&#58894;" d="M461.21341083-8.58806899000001c-2.21944427 0-4.5353856 0.28949227-6.7548288 0.964976-66.486816 18.4310336-127.8592608 53.74913813-177.55550187 102.28740907-5.21086827 5.11437013-7.9128 12.25518933-7.5268096 19.49250666 0.3859904 7.23731627 3.9564 14.0886432 9.7462528 18.52753067 31.747696 24.70337387 40.5289728 69.38174187 20.45748159 104.0243648-20.16798933 34.73912-63.20589867 49.4067488-100.35745812 34.5461248-6.7548288-2.7984288-14.4746336-2.50893653-20.93996907 0.86847787-6.46533653 3.28091733-11.2902144 9.26376533-13.02717013 16.3080864-8.49178453 33.48465173-12.7376768 67.83778133-12.7376768 102.19091093 0 34.25663253 4.24589227 68.60976213 12.7376768 102.19091093 1.83345387 7.04432107 6.5618336 13.02717013 13.02717013 16.40458454 6.46533653 3.3774144 14.0886432 3.66690667 20.93996907 0.86847786 37.05506133-15.05361813 80.09297067-0.28949227 100.26096 34.44962774 20.0714912 34.5461248 11.2902144 79.32099093-20.4574816 104.0243648-5.7898528 4.5353856-9.26376533 11.2902144-9.7462528 18.52753066-0.3859904 7.23731627 2.31594133 14.37813547 7.5268096 19.49250667 49.69624107 48.53826987 111.165184 83.9528736 177.55550187 102.28740907 7.1408192 1.83345387 14.57113067 0.67548267 20.6504768-3.28091734 6.07934613-4.05289707 10.1322432-10.42173547 11.09721919-17.6590528 5.40386347-39.66049493 39.75699307-69.57473707 79.80347841-69.57473706 28.65977387 0 69.47824 42.65192 80.09297065 61.3724448-0.7719808 3.85990187-0.5789856 8.00929707 0.5789856 12.06219413 4.05289707 13.3166624 18.14154027 20.74697493 31.36170561 16.98357013 0 0 0 0 0.09649707 0l0 0 0 0c69.2852448-20.6504768 128.8242368-55.10010453 176.97651626-102.09441386 5.21086827-5.11437013 8.00929707-12.25518933 7.62330667-19.49250667-0.3859904-7.23731627-3.9564-13.99214507-9.7462528-18.52753067-31.65119787-24.70337387-40.5289728-69.38174187-20.45748161-104.0243648 20.16798933-34.73912 63.3023968-49.599744 100.35745814-34.44962773 6.7548288 2.7984288 14.37813547 2.50893653 20.93996907-0.86847787 6.5618336-3.28091733 11.2902144-9.26376533 13.02717014-16.40458453 8.49178453-33.5811488 12.7376768-67.93427947 12.73767679-102.09441387s-4.3423904-68.513264-12.73767679-102.19091093c-1.83345387-7.04432107-6.5618336-13.02717013-13.02717014-16.3080864-6.5618336-3.3774144-14.0886432-3.66690667-20.93996907-0.86847787-37.05506133 14.95712107-80.1894688 0.1929952-100.35745814-34.5461248-20.0714912-34.5461248-11.2902144-79.32099093 20.45748161-104.0243648 5.7898528-4.43888747 9.26376533-11.19371627 9.7462528-18.52753066s-2.31594133-14.37813547-7.62330667-19.49250667c-49.599744-48.4417728-110.9721888-83.85637547-177.55550186-102.28740907-7.04432107-1.92995093-14.57113067-0.7719808-20.55397973 3.28091734-6.07934613 4.05289707-10.1322432 10.5182336-11.19371627 17.6590528-5.40386347 39.66049493-39.66049493 69.57473707-79.8034784 69.57473706-40.04648533 0-74.39961493-29.91424213-79.80347841-69.57473706-0.964976-7.23731627-5.01787307-13.60615573-11.09721919-17.6590528C470.95966469-7.2371025899999495 466.13478683-8.58806899000001 461.21341083-8.58806899000001zM331.32770096 113.38484087999996c33.29165653-28.08078827 71.40819093-50.08223147 112.22665707-64.65336214 18.91352107 49.79273813 67.35529387 84.62835627 122.55189546 84.62835627 55.1966016 0 103.6383744-34.83561707 122.55189547-84.62835627 40.9149632 14.57113067 78.93500053 36.57257387 112.22665707 64.65336214-33.67764693 41.4939488-39.66049493 100.8399456-11.96569707 148.60623573 27.5983008 47.669792 82.0229216 71.8906784 134.51759254 63.88138133 3.85990187 21.4224576 5.69335573 43.13440747 5.69335573 64.65336214 0 21.51895467-1.92995093 43.13440747-5.69335573 64.65336213-52.30167467-8.49178453-106.8227936 16.21158933-134.51759254 63.88138133-27.69479893 47.669792-21.71194987 107.0157888 11.96569707 148.5097376-32.51967573 27.4053056-70.34671787 49.0207584-112.80564267 64.55686507-21.51895467-35.3181056-73.53113707-84.43536107-121.97290987-84.43536107-55.10010453 0-103.54187733 34.83561707-122.55189546 84.62835627-40.81846613-14.4746336-78.93500053-36.47607573-112.22665707-64.7498592 33.67764693-41.4939488 39.66049493-100.8399456 11.96569707-148.5097376-27.69479893-47.669792-81.73342933-72.18017173-134.4210944-63.88138133-3.85990187-21.4224576-5.7898528-43.03790933-5.7898528-64.65336214 0-21.6154528 1.92995093-43.23090453 5.7898528-64.65336213 52.3981728 8.29878933 106.8227936-16.21158933 134.51759253-63.97787947C370.89169883 214.32128461000002 365.00534789 154.87878967999995 331.32770096 113.38484087999996zM566.00975643 259.28914488c-72.2766688 0-131.14017813 58.86350933-131.14017814 131.2366752s58.86350933 131.14017813 131.14017814 131.14017813c72.2766688 0 131.14017813-58.86350933 131.14017813-131.14017813S638.28642523 259.28914488 566.00975643 259.28914488zM566.00975643 471.10127928c-44.4853728 0-80.67195627-36.18658347-80.67195627-80.67195627s36.18658347-80.67195627 80.67195627-80.67195627c44.4853728 0 80.5754592 36.18658347 80.5754592 80.67195627S610.49512923 471.10127928 566.00975643 471.10127928z"  horiz-adv-x="1105" />

    
    <glyph glyph-name="image" unicode="&#59371;" d="M736 448c53 0 96 43 96 96s-43 96-96 96-96-43-96-96 43-96 96-96zM904 768H120c-31.2 0-56-25.4-56-56.6v-654.8c0-31.2 24.8-56.6 56-56.6h784c31.2 0 56 25.4 56 56.6V711.4c0 31.2-24.8 56.6-56 56.6zM697.8 372.6c-6 7-15.2 12.4-25.6 12.4-10.2 0-17.4-4.8-25.6-11.4L609.2 342c-7.8-5.6-14-9.4-23-9.4-8.6 0-16.4 3.2-22 8.2-2 1.8-5.6 5.2-8.6 8.2L448 465.4c-8 9.2-20 15-33.4 15-13.4 0-25.8-6.6-33.6-15.6L128 159.6V680.6c2 13.6 12.6 23.4 26.2 23.4h715.4c13.8 0 25-10.2 25.8-24l0.6-520.8-198.2 213.4z"  horiz-adv-x="1024" />

    
    <glyph glyph-name="preview" unicode="&#59023;" d="M680.35235732 833.69510654H232.08458222c-19.86842901 0-35.97560859-16.10717959-35.97560771-35.97560859v-145.31717461H126.36665967c-19.86842901 0-35.97560859-16.10717959-35.9756086-35.9756086v-197.86584726c0-19.86842901 16.10717959-35.97560859 35.9756086-35.9756086h69.74231484v-412.30475683c0-19.86842901 16.10717959-35.97560859 35.97560772-35.97560859h665.5487581c19.86842901 0 35.97560859 16.10717959 35.9756086 35.97560859V580.21726435L680.35235732 833.69510654z m8.74117354-210.00491631V778.0147582l190.30017656-190.30017656H702.58438409c-7.45054893 0-13.49085323 6.0403043-13.49085323 13.49085323v22.48475536z m-526.61995224-116.5384872v-27.91797188c0-9.35365781 0.28780489-14.82195059 1.15121953-21.29755957h-30.93902315c0.86341463 5.9000001 1.15121953 11.22438955 1.15121953 21.29755957v77.1335042c0 9.92926758-0.28780489 15.10975547-1.15121953 21.29845957h30.93902315c-0.86341463-6.76431386-1.15121953-12.37560908-1.15121953-21.29845957v-23.88870352h48.49602011v23.88870352c0 9.92926758-0.28780489 15.68536523-1.15121953 21.29845957h30.93992226c-0.86341463-5.90089922-1.15121953-11.22438955-1.15121865-21.29845957v-77.1335042c0-9.35365781 0.28780489-14.24634083 1.15121865-21.29755957H209.8183792c0.86341463 6.04390254 1.15121953 11.36829199 1.15121953 21.29755957v27.91797188h-48.49602011z m738.75732273-504.49315342v-22.48475537c0-7.45054893-6.0403043-13.49085323-13.4908532-13.49085322h-645.76217286c-7.45054893 0-13.49085323 6.0403043-13.49085322 13.49085322V382.58525887999997h365.56254843c19.86842901 0 35.97560859 16.10717959 35.9756086 35.9756086v197.86584726c0 19.86842901-16.10717959 35.97560859-35.9756086 35.9756086H228.48702207V787.82620576c0 7.45054893 6.0403043 13.49085323 13.49085322 13.49085322h414.73760801v-210.0049163c0-19.86842901 16.10717959-35.97560859 35.97560772-35.9756086h208.53981033v-552.67798447zM321.3409669 457.93617158h-31.8033378c0.86341463 6.76341474 1.15121953 12.66341396 1.15121953 21.72926689v72.52862608h-16.9804872c-9.06585292 0-11.51219443-0.14390244-21.7301669-1.00731709v27.48626455c4.74878057-0.57560977 12.66431396-1.00731709 21.44236201-1.00731709h63.03106494c10.07317002 0 15.82926768 0.28780489 22.44877998 1.00731709v-27.48626455c-6.47560987 0.71951221-12.0878042 1.00731709-22.44877998 1.00731709h-16.26187411v-72.52862608c0-8.63414649 0.28870401-14.96585302 1.15121953-21.72926689z m48.63722431 119.72952334h37.99114189c1.00731709-6.18780498 2.15853662-10.79268222 5.4682919-20.29114248l21.58536533-62.02374785 21.44146289 62.02374785c3.31065527 9.64146269 4.46187481 14.24634083 5.32528946 20.29114248h38.13414521c-0.86341463-6.90731719-1.15121953-12.80731641-1.15121953-22.4496791v-74.97496757c0-10.93658467 0.28780489-16.54877988 1.15121953-22.30487667h-28.3496792c0.86341463 6.61951231 1.15121953 12.0878042 1.15121953 22.30487667v31.37163047c0 3.45365859 0.4308082 14.24634083 0.7195122 18.70731649 0.43170732 7.6268294 0.43170732 7.6268294 0.57560977 9.78536515-3.16585371-11.22438955-4.60487813-16.40487744-6.47560986-21.58536534l-13.95853594-39.43016631c-3.59846016-10.21707247-5.4691919-16.54877988-6.1887041-21.15455713h-25.03902305c-0.71951221 5.03658545-2.30243906 10.3609749-6.18780497 21.29756045l-13.23902373 38.27894678c-0.14390244 0.71951221-4.46097568 14.1033375-4.89268303 15.2536579-1.58292685 5.18048789-1.58292685 5.18048789-2.30243905 7.19512208 0.86341463-9.06675293 1.43902441-20.86675225 1.43902442-28.49358165v-31.22772713c0-9.92926758 0.28780489-16.260975 1.15121953-22.30487755h-28.3496792c0.86341463 6.47560987 1.15121953 12.51951153 1.15121953 22.30487755v74.97496669c0.00089913 8.63684385-0.4308082 16.26367324-1.15031953 22.45147822z m139.29755625 0h31.37162959c-1.00731709-7.48292695-1.15121953-11.51219443-1.15121954-22.73748398v-71.37740653h34.82618819c12.23170665 0 17.12438965 0.14390244 23.88870352 1.00731707v-27.63016698c-5.32439033 0.71951221-12.37650908 1.00731709-23.88870352 1.00731708h-43.74813867c-9.92926758 0-15.83016681-0.14390244-21.29845956-0.43170732 0.86341463 5.03658545 1.15121953 11.36829199 1.15121865 21.00975556v75.9822838c0 10.07407002-0.28870401 16.26277412-1.15121865 23.1700913zM496.45943633 269.80712286000005l-10.17570058 10.17570059c-3.51211904 3.51211904-9.20705801 3.51211904-12.71917617 0l-78.85943351-78.85943351-10.17570058-10.17570059c-3.51211904-3.51211904-3.51211904-9.20705801 0-12.71917617l10.17570058-10.17570058 78.85943351-78.8594335c3.51211904-3.51211904 9.20705801-3.51211904 12.71917616 0l10.17570059 10.17570059c3.51211904 3.51211904 3.51211904 9.20705801 0 12.71917617l-72.49984453 72.49984541 72.49984453 72.4998454c3.51211904 3.51211904 3.51211904 9.20615801 0 12.71917618zM743.79174541 190.94679023000003l-10.17570146 10.17570059-78.85943262 78.8594335c-3.51211904 3.51211904-9.20705801 3.51211904-12.71917705 0l-10.17570059-10.17570059c-3.51211904-3.51211904-3.51211904-9.20705801 0-12.71917705l72.49984542-72.49984453-72.49984542-72.49984541c-3.51211904-3.51211904-3.51211904-9.20705801 0-12.71917617l10.17570059-10.17570147c3.51211904-3.51211904 9.20705801-3.51211904 12.71917705 0l78.85943262 78.8594335 10.17570146 10.17570146c3.51211904 3.51211904 3.51211904 9.20705801 0 12.71917617zM607.46127734 283.54440908000004l-13.52233213 4.92146279c-4.66783506 1.69894777-9.82853613-0.70782012-11.52748388-5.37565517l-67.67371758-185.93273759c-1.69894777-4.66783506 0.70782012-9.82853613 5.37565518-11.5274839l13.52233212-4.92146367c4.66783506-1.69894777 9.82853613 0.70782012 11.52748389 5.37565518l67.67371758 185.9327376c1.69894777 4.66783506-0.70782012 9.82853613-5.37565518 11.52748476z"  horiz-adv-x="1024" />

    
    <glyph glyph-name="find" unicode="&#58893;" d="M282.56328125 646.828125h455.371875v-52.734375H282.56328125v52.734375z m-1.51875-105.99609375H736.4375v-52.734375H281.04453125v52.734375zM168.7203125 753.140625h683.0578125v-421.875h56.93203125v421.875c0 29.109375-25.48125 52.734375-56.93203125 52.734375H168.7203125C137.290625 805.875 111.809375 782.25 111.809375 753.140625V14.859375c0-29.109375 25.48125-52.734375 56.9109375-52.734375h398.4609375v52.734375H168.7203125V753.140625zM282.18359375 329.89453125v-52.734375h138.43828125c0 18.3515625 2.9109375 36.028125 8.26875 52.734375H282.18359375z m232.72734375 105.46875H281.04453125v-52.734375h173.03203125a195.0328125 195.0328125 0 0 0 60.834375 52.734375z m385.59375-424.40625l-118.18828125 119.475a186.32109375 186.32109375 0 0 1 43.60078125 120.31875c0 101.925-80.7890625 184.5703125-180.41484375 184.5703125-99.646875 0-180.41484375-82.6453125-180.41484375-184.5703125s80.7890625-184.5703125 180.41484375-184.5703125c36.0703125 0 69.67265625 10.8421875 97.875 29.4890625l120.67734375-122.00625c10.06171875-10.29375 26.38828125-10.29375 36.45 0a26.7890625 26.7890625 0 0 1 0 37.29375zM507.275 250.75078125000005c0 72.815625 61.3828125 131.8359375 137.109375 131.8359375s137.109375-59.0203125 137.109375-131.8359375-61.3828125-131.8359375-137.109375-131.8359375-137.109375 59.0203125-137.109375 131.8359375z"  horiz-adv-x="1024" />

    
    <glyph glyph-name="h-line" unicode="&#58885;" d="M867.99999969 343.99999969H156.00000031a4.00000031 4.00000031 0 0 0-4.00000031 4.00000031v72a4.00000031 4.00000031 0 0 0 4.00000031 4.00000031h711.99999938a4.00000031 4.00000031 0 0 0 4.00000031-4.00000031v-72a4.00000031 4.00000031 0 0 0-4.00000031-4.00000031z"  horiz-adv-x="1024" />

    
    <glyph glyph-name="delete-line" unicode="&#58931;" d="M866.50683594 359.7421875H159.8046875c-21.84082031 0-39.55078125 17.70996094-39.55078125 39.55078125s17.70996094 39.55078125 39.55078125 39.55078126h706.7109375c21.84082031 0 39.55078125-17.70996094 39.55078125-39.55078126-0.00878906-21.84082031-17.70996094-39.55078125-39.55957031-39.55078125zM214.49023437 247.875l94.04296876 7.91015625c4.43847655-37.95996094 14.77441406-69.09082031 31.02539062-93.41015625 16.23339844-24.31933594 41.44921875-43.98925781 75.63867188-58.98339844 34.18066406-15.01171875 72.6328125-22.50878906 115.37402343-22.50878906 37.94238281 0 71.45507813 5.68652345 100.51171875 17.06835938s50.67773438 27 64.86328125 46.82812499 21.28710938 41.37890625 21.28710938 64.64355469c0 23.58984375-6.82910156 44.19140625-20.47851563 61.79589843s-36.2109375 32.42285156-67.65820312 44.45507814c-20.18847655 7.88378906-64.80175781 20.16210938-133.86621094 36.80859375-69.07324219 16.64648438-117.52734375 32.37011719-145.36230469 47.16210937-36.08789063 18.9140625-62.99121094 42.38085938-80.69238281 70.40917969s-26.54296875 59.40527344-26.54296875 94.13964843c0 38.1796875 10.79296875 73.85449219 32.37890625 107.03320313s53.10351563 58.37695313 94.57910156 75.56835938c41.45800781 17.19140625 87.54785156 25.78710938 138.26074219 25.78710937 55.85449219 0 105.10839844-9.03515625 147.76171875-27.07910156s75.48046875-44.60449219 98.4375-79.68164063 35.296875-74.77734375 37.0107422-119.11816406l-95.80078126-7.03125c-5.1328125 47.53125001-22.48242188 83.44335938-52.05761719 107.71875s-73.265625 36.421875-131.03613281 36.421875c-60.1875 0-104.05371094-11.06542969-131.57226563-33.20507813s-41.28222656-48.83203125-41.28222656-80.05957031c0-27.12304688 9.73828125-49.43847655 29.24121094-66.9375 19.14257813-17.52539063 69.14355469-35.45507813 150.02050781-53.81542968 80.859375-18.36035156 136.40625001-34.3828125 166.62304688-48.09375 43.92773438-20.21484375 76.36816406-45.82617188 97.3125-76.83398438s31.42089844-66.71777344 31.42089843-107.14746094c0-40.08691406-11.47851563-77.85351563-34.41796875-113.30859375-22.94824219-35.45507813-55.90722656-63.04394531-98.87695312-82.74023437-42.98730469-19.69628906-91.35351563-29.54882813-145.09863281-29.54882813-68.14160156 0-125.24414063 9.96679689-171.30761719 29.9091797s-82.17773438 49.93066406-108.36914063 89.98242187c-26.2265625 40.03417969-39.99902345 85.32421875-41.37011718 135.86132812z"  horiz-adv-x="1024" />

    
    <glyph glyph-name="task-list" unicode="&#58888;" d="M230.75 715.875a50.625 50.625 0 0 1-50.625-50.625v-562.5a50.625 50.625 0 0 1 50.625-50.625h562.5a50.625 50.625 0 0 1 50.625 50.625V665.25a50.625 50.625 0 0 1-50.625 50.625H230.75z m0 61.875h562.5a112.5 112.5 0 0 0 112.5-112.5v-562.5a112.5 112.5 0 0 0-112.5-112.5H230.75A112.5 112.5 0 0 0 118.25 102.75V665.25A112.5 112.5 0 0 0 230.75 777.75z m428.11875-259.36875a30.9375 30.9375 0 1 0 43.7625-43.7625L455.75 227.73749999999995l-134.38125 134.4375a30.9375 30.9375 0 0 0 43.7625 43.70625L455.75 315.26250000000005l203.11875 203.0625z"  horiz-adv-x="1024" />

    
    <glyph glyph-name="hyper-link" unicode="&#58913;" d="M425.95507812 102.92578125c-53.87695313-53.87695313-141.24023438-53.87695313-195.11718749 0-53.87695313 53.87695313-53.87695313 141.24023438-1e-8 195.1171875l123.66210938 123.66210938c13.73730469 13.73730469 13.73730469 36.00878906 0 49.74609374-13.73730469 13.73730469-36.00878906 13.73730469-49.74609375 0L181.09179687 347.7890625c-81.38671875-81.38671875-81.38671875-213.22265625 2e-8-294.609375s213.22265625-81.38671875 294.60937498 0l123.66210938 123.66210939c13.73730469 13.73730469 13.73730469 36.00878906 0 49.74609373-13.73730469 13.73730469-36.00878906 13.73730469-49.74609375 0L425.95507812 102.92578125zM842.29296875 714.46875001c-81.38671875 81.38671875-213.22265625 81.38671875-294.609375-2e-8L424.02148437 590.80664063c-13.73730469-13.73730469-13.73730469-36.00878906 1e-8-49.74609376 13.73730469-13.73730469 36.00878906-13.73730469 49.74609375 0l123.66210937 123.66210938c53.87695313 53.87695313 141.24023438 53.87695313 195.1171875 0 53.87695313-53.87695313 53.87695313-141.24023438 0-195.1171875L668.88476563 345.94335937000005c-13.73730469-13.73730469-13.73730469-36.00878906-1e-8-49.74609375 13.73730469-13.73730469 36.00878906-13.73730469 49.74609375 0l123.66210938 123.66210938c81.38671875 81.38671875 81.38671875 213.31054688 0 294.60937499zM343.25 215.42578125c15.1171875-15.1171875 39.55078125-15.1171875 54.66796875 0l282.12890625 282.12890625c15.1171875 15.1171875 15.1171875 39.55078125 0 54.66796875-15.1171875 15.1171875-39.55078125 15.1171875-54.66796875 0l-282.12890625-282.12890624c-15.1171875-15.02929689-15.1171875-39.55078125 0-54.66796876z"  horiz-adv-x="1024" />

    
    <glyph glyph-name="outline" unicode="&#59064;" d="M341.333333 469.333333a42.666667 42.666667 0 0 1 42.666667-42.666666h85.333333v42.666666a42.666667 42.666667 0 0 0 42.666667 42.666667h341.333333a42.666667 42.666667 0 0 0 42.666667-42.666667v-127.786666c0-23.552-19.114667-42.666667-42.666667-42.666667L512 298.66666699999996a42.666667 42.666667 0 0 0-42.410667 37.632L469.333333 341.33333300000004v42.666667H384a84.906667 84.906667 0 0 0-42.666667 11.434667V170.66666699999996a42.666667 42.666667 0 0 1 42.666667-42.666667h85.333333v42.666667a42.666667 42.666667 0 0 0 42.666667 42.666666h341.333333a42.666667 42.666667 0 0 0 42.666667-42.666666v-127.786667c0-23.552-19.114667-42.666667-42.666667-42.666667L512 0a42.666667 42.666667 0 0 0-42.410667 37.632L469.333333 42.66666699999996v42.666666H384a85.333333 85.333333 0 0 0-85.333333 85.333334V597.418667L170.666667 597.333333a42.666667 42.666667 0 0 0-42.410667 37.674667L128 640V768a42.666667 42.666667 0 0 0 42.666667 42.666667h384a42.666667 42.666667 0 0 0 42.666666-42.666667v-127.786667c0-23.552-19.114667-42.666667-42.666666-42.666666l-213.333334-0.085334V469.333333z m469.333334-341.333333h-256v-42.666667l256 0.042667V128z m0 298.666667h-256v-42.666667l256 0.042667V426.666667z m-298.666667 298.666666H213.333333v-42.666666l298.666667 0.042666V725.333333z"  horiz-adv-x="1024" />

    
    <glyph glyph-name="right-align" unicode="&#58881;" d="M917 613.95l-810 0 0 90 810 0 0-90ZM917 253.95000000000005l-810 0 0 90 810 0 0-90ZM917 433.95l-540 0 0 90 540 0 0-90ZM917 73.95000000000005l-540 0 0 90 540 0 0-90Z"  horiz-adv-x="1024" />

    
    <glyph glyph-name="left-align" unicode="&#58882;" d="M106.1 700.8l810 0 0-90-810 0 0 90ZM106.1 340.79999999999995l810 0 0-90-810 0 0 90ZM106.1 520.8l540 0 0-90-540 0 0 90ZM106.1 160.79999999999995l540 0 0-90-540 0 0 90Z"  horiz-adv-x="1024" />

    
    <glyph glyph-name="justify-align" unicode="&#58884;" d="M105.2 698.1l810 0 0-90-810 0 0 90ZM105.2 518.1l810 0 0-90-810 0 0 90ZM105.2 338.1l810 0 0-90-810 0 0 90ZM105.2 158.10000000000002l810 0 0-90-810 0 0 90Z"  horiz-adv-x="1024" />

    
    <glyph glyph-name="center-align" unicode="&#58976;" d="M123.6385189 723.81629667h776.7229622v-97.09037112H123.6385189V723.81629667z m97.09036999-194.18074112h582.54222222v-97.09036998H220.72888889V529.6355555499999z m-97.09036999-194.18074112h776.7229622v-97.09036998H123.6385189v97.09036998z m97.09036999-194.18073998h582.54222222v-97.09037112H220.72888889v97.09037112z"  horiz-adv-x="1024" />

    
    <glyph glyph-name="append-line" unicode="&#58880;" d="M1027.93003552 709.1705749H173.77873289a34.6633962 34.6633962 0 1 0 0 69.29254002h854.185555a34.18386306 34.18386306 0 0 0 34.8689104-34.42362962 34.25236779 34.25236779 0 0 0-34.83465802-34.8689104h-0.06850475z m0-240.38311948H173.77873289c-19.72936418 0-35.31419117 15.13954699-35.31419117 34.8346588 0 19.2840834 15.58482776 34.42362963 35.31419117 34.42362963h854.185555a34.18386306 34.18386306 0 0 0 34.8689104-34.38937725 34.25236779 34.25236779 0 0 0-34.83465802-34.86891117h-0.06850475z m-76.10876183-378.89969555H816.9354485v-47.7135488c0-37.60909976-35.7937243-51.34429971-64.22319048-28.42946541l-124.33609614 99.53738165c-18.80455027 15.13954699-18.80455027 41.30835617 0 55.96836926l124.33609614 99.09210087c27.50465149 22.50380591 64.18893812 8.25482046 64.18893811-27.50465148v-45.86392099h124.78137692c10.99500982 0 15.58482776 5.95991187 15.584827 15.58482777v88.0628387c0 37.16381899 19.24983104 60.0786533 52.74864675 60.07865329s52.74864675-22.94908668 52.74864676-60.07865329v-104.12719961c0-64.70272361-46.34345411-104.60673196-111.0119246-104.60673196h0.06850473zM487.08514407 228.40433672999995H173.43620922C154.15319647 228.38506961999997 138.50200527 243.99130503000004 138.46454172 263.27324711999995c0 19.2840834 15.58482776 34.42362963 35.31419117 34.42362964h313.34066355c19.72936418 0 34.86891039-15.13954699 34.86891039-34.42362963s-15.13954699-34.83465803-34.8689104-34.83465803l-0.03425236-0.03425237z m0-239.90358633H173.77873289c-19.72936418 0-35.31419117 15.13954699-35.31419117 34.42363041s15.58482776 34.86891039 35.31419117 34.86891039h313.64893485c19.07856921-0.0192671 34.54137277-15.48100001 34.56063909-34.56063909v-0.27401894a34.18386306 34.18386306 0 0 0-34.8689104-34.42363041l-0.03425236-0.03425236z"  horiz-adv-x="1198" />

    
    <glyph glyph-name="fit-height" unicode="&#59020;" d="M186.55357107 805.875h650.89285786A96.42857107 96.42857107 0 0 0 933.875 709.44642893v-650.89285786a96.42857107 96.42857107 0 0 0-96.42857107-96.42857107H186.55357107A96.42857107 96.42857107 0 0 0 90.125 58.553571069999975V709.44642893A96.42857107 96.42857107 0 0 0 186.55357107 805.875z m-24.10714214-723.21428595a48.21428595 48.21428595 0 0 1 48.21428512-48.21428513h602.6785719a48.21428595 48.21428595 0 0 1 48.21428513 48.21428513V685.33928595a48.21428595 48.21428595 0 0 1-48.21428513 48.21428513H210.66071405a48.21428595 48.21428595 0 0 1-48.21428513-48.21428513z m253.12499999 183.69642892l60.26785703-60.26785702v355.58035703l-58.82142892-58.82142893a36.16071405 36.16071405 0 0 0-51.10714298 51.16741095L477.94866095 666.05357107a35.37723202 35.37723202 0 0 0 6.75 10.18526798 41.46428595 41.46428595 0 0 0 54.6026781 0 33.62946405 33.62946405 0 0 0 6.75-10.125l112.09821487-112.09821405a36.16071405 36.16071405 0 0 0-51.10714297-51.16741095l-58.82142893 58.82142892v-355.58035702l60.26785704 60.26785702a36.16071405 36.16071405 0 0 0 51.16741094-51.10714297l-122.22321405-122.22321405a36.16071405 36.16071405 0 0 0-51.10714298 0L364.10267892 215.25a36.16071405 36.16071405 0 0 0 51.10714216 51.10714298z"  horiz-adv-x="1024" />

    
    <glyph glyph-name="fill-color" unicode="&#58898;" d="M763.23574362 116.45036761999995c-35.38382425 0-65.15284927 27.91508287-65.15284926 61.44496426 0 33.52988138 65.15284927 143.44220833 65.15284927 143.44220833s65.15284927-109.91232767 65.15284998-143.44220834-29.76902573-61.44496352-65.15284998-61.44496425zM264.10135355 443.11510152l460.1486206 6.09152688-233.27898308 227.13448629L264.10135355 443.11510152zM209.86028191 416.63020377a29.23932746 29.23932746 0 0 0-7.2568625 46.24263199L450.29018698 715.90955306 388.84522347 775.8183924a29.23932746 29.23932746 0 0 0 0 40.99862274c11.12365723 9.26971435 29.76902573 11.12365723 40.94565286 0l353.94417867-344.62149513a29.23932746 29.23932746 0 0 0-6.67419433-45.9248133l-254.09611314-261.40594483c-14.93748277-14.88451286-39.14467917-14.88451286-55.8831349 0L209.86028191 416.63020377z"  horiz-adv-x="1024" />

    
    <glyph glyph-name="delete" unicode="&#58889;" d="M765.95309448 78.42407227000001c0-29.02203369-23.63983154-52.66186523-52.66186523-52.66186524H333.68365479c-29.02203369 0-52.66186523 23.63983154-52.66186524 52.66186524V637.65234375h484.93212891v-559.22827148zM386.34469604 732.21166992c0 6.12130737 4.74938964 10.7644043 10.7644043 10.7644043h253.2840271c6.12048339 0 10.7644043-4.74856568 10.7644043-10.7644043v-31.76586914h-274.81201172V732.21166992z m537.59399414-31.66040039H724.05563354V732.21166992c0 40.52554321-33.13778687 73.66333008-73.66333007 73.66333008H397.10992432c-40.52471924 0-73.66333008-33.13778687-73.66333008-73.66333008v-31.76586914H122.9307251c-17.5177002 0-31.76586914-14.14187622-31.76586914-31.76586914 0-17.51852417 14.14187622-31.76586914 31.76586914-31.76586914h94.55932617v-558.59545898c0-64.16537476 52.02905273-116.19360352 116.19360352-116.19360352h379.60839844c64.16537476 0 116.19360352 52.02822876 116.19360351 116.19360352V637.65234375h94.55932617c17.51852417 0 31.76586914 14.14187622 31.76586914 31.76586914-0.10546875 17.6248169-14.24652099 31.13305664-31.87133789 31.13305664zM523.43429565 120.95434569999998c17.51934815 0 31.76586914 14.14187622 31.76586914 31.76669312V490.43197632c0 17.51852417-14.14105224 31.76586914-31.76586914 31.76586914-17.51852417 0-31.76586914-14.14187622-31.76586914-31.76586914v-337.7109375c0-17.51934815 14.24734497-31.76669312 31.76586914-31.76669312m-147.95947265 0c17.51852417 0 31.76586914 14.14187622 31.76586914 31.76669312V490.43197632c0 17.51852417-14.14187622 31.76586914-31.76586914 31.76586914-17.51852417 0-31.76586914-14.14187622-31.76586914-31.76586914v-337.7109375c0.73910523-17.51934815 14.88098144-31.76669312 31.76586914-31.76669312m295.91976929 0c17.5177002 0 31.76586914 14.14187622 31.76586914 31.76669312V490.43197632c0 17.51852417-14.14187622 31.76586914-31.76586914 31.76586914-17.51934815 0-31.76669312-14.14187622-31.76669312-31.76586914v-337.7109375c0-17.51934815 14.14187622-31.76669312 31.76669312-31.76669312"  horiz-adv-x="1059" />

    
    <glyph glyph-name="remove" unicode="&#58887;" d="M602.7 384.1l271.7 271.7c24.9 24.9 24.9 65.5 0 90.4-24.9 24.9-65.5 24.9-90.4 0L512.3 474.5 240.6 746.2c-24.9 24.9-65.5 24.9-90.4 0-24.9-24.9-24.9-65.5 0-90.4l271.7-271.7-271.7-271.7c-24.9-24.9-24.9-65.5 0-90.4 24.9-24.9 65.5-24.9 90.4 0l271.7 271.7L784.1 22c24.9-24.9 65.5-24.9 90.4 0 24.9 24.9 24.9 65.5 0 90.4L602.7 384.1z"  horiz-adv-x="1024" />

    
    <glyph glyph-name="fit-width" unicode="&#59019;" d="M90.125 58.553571069999975V709.44642893A96.42857107 96.42857107 0 0 0 186.55357107 805.875h650.89285786A96.42857107 96.42857107 0 0 0 933.875 709.44642893v-650.89285786a96.42857107 96.42857107 0 0 0-96.42857107-96.42857107H186.55357107A96.42857107 96.42857107 0 0 0 90.125 58.553571069999975z m723.21428595-24.10714214a48.21428595 48.21428595 0 0 1 48.21428513 48.21428512V685.33928595a48.21428595 48.21428595 0 0 1-48.21428513 48.21428513H210.66071405a48.21428595 48.21428595 0 0 1-48.21428513-48.21428513v-602.67857189a48.21428595 48.21428595 0 0 1 48.21428513-48.21428514zM629.64285702 287.57142893l60.26785704 60.26785702h-355.58035704l58.82142893-58.82142892a36.16071405 36.16071405 0 0 0-51.16741095-51.10714298L229.94642893 349.94866095a35.37723202 35.37723202 0 0 0-10.18526798 6.75 41.46428595 41.46428595 0 0 0 0 54.6026781 33.62946405 33.62946405 0 0 0 10.125 6.75l112.09821405 112.09821487a36.16071405 36.16071405 0 0 0 51.16741095-51.10714297l-58.82142892-58.82142893h355.58035702l-60.26785702 60.26785704A36.16071405 36.16071405 0 0 0 680.75 531.65625l122.22321405-122.22321405a36.16071405 36.16071405 0 0 0 0-51.10714298L680.75 236.10267892000002a36.16071405 36.16071405 0 0 0-51.10714298 51.10714216z"  horiz-adv-x="1024" />

    
    <glyph glyph-name="save" unicode="&#58892;" d="M574.38652344 721.91660156h90.3665039V507.92578125H574.38652344V721.91660156z m-78.01171875-245.87841797h194.44394531c24.90117188 0.01757813 36.88417969 11.94433594 36.88417969 36.77080078 0.01845703 67.94121094 0.01845703 135.87011719 0 203.81220704 0 24.99609375-11.74042969 36.75322266-36.79101563 36.75322265-129.63427734 0.01757813-259.25009766 0.01757813-388.86591797 0-24.54697266 0-36.54492188-11.86875-36.5625-36.2821289-0.05800781-68.1890625-0.05800781-136.37636719 0-204.58300782 0.01757813-24.39404297 12.14912109-36.45175781 36.46933594-36.45175781 64.80615234-0.01933594 129.61582031-0.01933594 194.42285156-0.01933594z m15.68144531-461.390625c90.87275391 0 181.72880859-0.02197266 272.58398438 0.03515625 23.11787109 0 35.30478516 12.15175781 35.30478515 35.02617188 0.01845703 99.71630859 0.01845703 199.43613281 0 299.1383789 0 22.96669922-12.28095703 35.36191406-35.02265625 35.36191407-181.99423828 0.01757813-363.965625 0.01757813-545.94052734 0-22.38222656-0.02021484-34.91015625-12.43476563-34.91015625-34.7053711-0.03603516-99.96328125-0.03603516-199.94501953 0.01845703-299.90830078 0-3.62373047 0.09667969-7.34238281 0.92197266-10.83515625 3.73798828-15.81152344 15.60673828-24.075 34.47949218-24.09433594 90.85605469-0.04130859 181.71035156-0.01845703 272.56464844-0.01845703z m317.13046875-30.61230468h-634.35058594c-1.4484375 0.50976563-2.87490234 1.22167969-4.359375 1.48447265-36.71367188 6.57246094-61.16484375 27.62402344-73.61455078 62.62998047-2.14277344 6.02929688-3.25107422 12.44970703-4.84628906 18.68554688V701.18671875c0.50537109 1.4625 1.20146484 2.87138672 1.48447265 4.37431641 7.53134766 40.31982422 31.47363281 65.33525391 70.85302735 75.90761718 3.47695313 0.94042969 6.98642578 1.69189453 10.48095703 2.53388672h545.27871094c22.70478516-5.01064453 40.52636719-18.55371094 56.69648437-34.0461914a2817.69960937 2817.69960937 0 0 0 79.04355469-78.81855469c16.2421875-16.84423828 30.83466797-35.21162109 36.12919922-59.00185547v-545.29980469c-0.50449219-1.44755859-1.20058594-2.85644531-1.48271484-4.359375-7.53222656-40.33740234-31.45605469-65.33261719-70.85478516-75.92607422-3.45498047-0.91933594-6.96708984-1.68837891-10.45810547-2.51455078z"  horiz-adv-x="1024" />

    
    <glyph glyph-name="format-brush" unicode="&#58891;" d="M829.165625 417.86249973L829.165625 631.41562473l-34.87499973 0L794.29062527 729.15000027c0 35.12812473-22.64062473 62.66250027-51.6375 62.66250027L246.41562473 791.81249973c-28.88437473 0-51.58124973-27.53437473-51.58124973-62.66250027l0-180.478125c0-35.15625027 22.696875-62.71874973 51.58124973-62.71874973l496.26562527 0c28.99687527 0 51.6375 27.53437473 51.6375 62.71874973l0 57.09375027 9.50625027 0 0-166.41562473-358.87499973-64.85625027 0-64.209375-24.49687472 0c-30.99374973 0-56.13749973-25.48125-56.13749972-56.75625027l0-220.61250028c0-31.24687473 25.17187473-56.75625027 56.13749972-56.75625028l74.39062528 0c30.88125 0 56.08125027 25.48125 56.08125027 56.75625028l0 220.61250028c0 31.24687473-25.20000027 56.75625027-56.08125027 56.75625027l-24.553125 0 0 42.75000027L829.165625 417.86249973z"  horiz-adv-x="1024" />

    
    <glyph glyph-name="format-clear" unicode="&#60237;" d="M928.74218777 501.98437473l-246.09375027 246.09375027a18.07031277 18.07031277 0 0 1-24.85546848 0L388.95312527 479.27343777l270.94921875-270.94921875 268.80468723 268.80468723a17.57812473 17.57812473 0 0 1 0.03515652 24.85546848zM364.09765598 454.41796848l-113.62499946-113.62499946c-16.59375027-16.59375027-25.734375-38.67187473-25.734375-62.15625027s9.14062473-45.52734348 25.734375-62.15625027l105.46875-105.46875c16.59375027-16.59375027 38.67187473-25.734375 62.15624946-25.734375h82.37109375c23.48437473 0 45.5625 9.14062473 62.15625027 25.734375l72.45703125 72.45703125-270.98437527 270.94921875zM740.51562473 14.96484375H107.70312473a17.57812473 17.57812473 0 0 0 0 35.15625027h632.8125a17.57812473 17.57812473 0 0 0 0-35.15625027z"  horiz-adv-x="1024" />

    
    <glyph glyph-name="undo" unicode="&#58970;" d="M76 432.3l294.8-294.9c19.5-19.4 52.8-5.6 52.8 21.9V334.5c202.5 8.2 344.1-59.5 501.6-338.3 8.5-15 31.5-7.9 30.6 9.3-30.5 554.7-453 571.4-532.3 569.6v174c0 27.5-33.2 41.3-52.7 21.8L75.9 476c-12-12.1-12-31.6 0.1-43.7z"  horiz-adv-x="1024" />

    
    <glyph glyph-name="redo" unicode="&#58971;" d="M946.8 476L651.9 770.9c-19.5 19.5-52.7 5.7-52.7-21.8v-174c-79.3 1.8-501.8-14.9-532.3-569.6-0.9-17.2 22.1-24.3 30.6-9.3C255 275 396.6 342.7 599.1 334.5v-175.2c0-27.5 33.3-41.3 52.8-21.9l294.8 294.9c12.1 12.1 12.1 31.6 0.1 43.7z"  horiz-adv-x="1024" />

    
    <glyph glyph-name="draw-edit" unicode="&#58897;" d="M343.85460538 221.51929238000002l45.81978278 100.4482002 57.85608004-55.85623104-103.67586282-44.59196916z m78.9521553 141.43113996l301.9119994 290.75935721 67.56697183-66.01360088-301.35390244-290.11754527-68.1250688 65.37178894z m453.22146112 305.61404481l-41.61545068-39.857444-67.44605027 66.01360088 40.95503504 39.21563288c6.59484888 6.55764231 19.31016384 5.36703525 26.49101523-1.76730853l39.78303167-38.0529289c4.24153867-4.14852264 6.65065833-9.52485974 6.65065833-14.86399027 0.00930185-4.15782449-1.81381613-7.72034546-4.81823932-10.68756206zM348.68214654 368.92207297000004c-0.61390723-0.6325101-1.20921075-1.2185126-1.82311797-2.38121494L304.06227268 214.90583980999997c-2.40911965-8.88304778 0-18.40790671 6.65065832-24.97485086 5.4228447-4.76242987 12.03629727-7.65523334 19.27295809-7.65523417 2.41842151 0 4.21363394 0.57670066 6.62275361 1.15340132l156.67649697 40.99224161h0.65111298a6.63205545 6.63205545 0 0 1 4.77173173 1.79521325l418.3496856 403.09502757c12.59439422 11.8688681 19.24505256 27.9234646 19.24505338 45.77327517 0 20.20311997-9.00396853 40.40623992-24.07259455 55.27022937l-39.78303085 38.05292971c-15.66392872 14.86398944-36.20190701 23.77494196-57.32588781 23.77494196-18.60324143 0-35.55079404-6.53903943-47.54988392-19.01251291L349.26814822 370.72658724999997c-0.5860025-0.57670066-0.5860025-1.2185126-0.58600167-1.80451428zM173.29078924 805.875C127.4989112 805.875 90.125 769.04058289 90.125 723.84400837V44.90942247999999c0-45.15936795 37.3739112-82.03099164 83.16578925-82.03099081h664.19151717c45.79187805 0 83.10997979 36.87162368 83.10997981 82.03099081V478.3091304h-71.10158808v-372.21364737c0-40.41554096-33.14167438-72.4596243-73.51070691-72.45962429H234.76519971c-40.37833521 0-73.51070691 32.04408252-73.51070774 72.45962429V663.19744272c0 39.82953928 33.13237253 72.54333847 73.51070774 72.54333847h377.30163455V805.875H173.29078924z"  horiz-adv-x="1026" />

    
    <glyph glyph-name="search" unicode="&#58963;" d="M420.28906259 145.54687480999996A330.14062463 330.14062463 0 1 0 420.28906259 805.875a330.14062463 330.14062463 0 0 0 0-660.32812519z m0 73.35937492a256.78124973 256.78124973 0 1 1 0 513.60937536 256.78124973 256.78124973 0 0 1 0-513.60937536zM640.4609375 309.84375018000003l259.35937482-259.40624991-51.84374991-51.890625-259.40624991 259.40624992z"  horiz-adv-x="1024" />

    
    <glyph glyph-name="library-add" unicode="&#59629;" d="M170.666667 640H85.333333v-597.333333c0-47.146667 38.186667-85.333333 85.333334-85.333334h597.333333v85.333334H170.666667V640z m682.666666 170.666667H341.333333c-47.146667 0-85.333333-38.186667-85.333333-85.333334v-512c0-47.146667 38.186667-85.333333 85.333333-85.333333h512c47.146667 0 85.333333 38.186667 85.333334 85.333333V725.333333c0 47.146667-38.186667 85.333333-85.333334 85.333334z m-42.666666-384h-170.666667v-170.666667h-85.333333v170.666667h-170.666667v85.333333h170.666667v170.666667h85.333333v-170.666667h170.666667v-85.333333z"  horiz-adv-x="1024" />

    
    <glyph glyph-name="draw" unicode="&#58910;" d="M430.23630578 89.77734163000002c-2.64085808-9.32067555 6.62803555-18.64135111 15.9487111-16.05227497l110.19109809 30.70644861-95.58870639 95.95117628-30.5511028-110.60534992z m407.62421096 441.17864296c-11.90975169 12.01331556-31.84564148 10.71877689-45.15349572-1.29453867l-46.44803318-46.65515851 92.94784831-93.31031942 46.44803318 46.60337778c13.30785302 13.35963497 13.30785302 33.34730547 1.34631939 45.36062104l-49.14067198 49.34779972z m-345.22746666-297.22598757l90.30699023-95.95117627 229.7028705 225.24965925-92.94784831 93.31031822-227.06201242-222.6088012zM248.53491317 746.47071645h517.81530905v-51.78153127h-517.81530905zM170.86261688 668.79842016h51.78153127v-517.81530905H170.86261688zM248.53491317 125.09234607999997H377.98874074v-51.78153126H248.53491317zM196.75338311 642.90765392a77.6722963 77.6722963 0 1 1 0 155.34459259 77.6722963 77.6722963 0 0 1 0-155.34459259z m0 51.78153126a25.89076502 25.89076502 0 1 0 0 51.78153127 25.89076502 25.89076502 0 0 0 0-51.78153127zM818.13175349 642.90765392a77.6722963 77.6722963 0 1 1 0 155.34459259 77.6722963 77.6722963 0 0 1 0-155.34459259z m0 51.78153126a25.89076502 25.89076502 0 1 0 0 51.78153127 25.89076502 25.89076502 0 0 0 0-51.78153127zM196.75338311 21.529283549999946a77.6722963 77.6722963 0 1 1 0 155.34459259 77.6722963 77.6722963 0 0 1 0-155.34459259z m0 51.78153127a25.89076502 25.89076502 0 1 0 0 51.78153126 25.89076502 25.89076502 0 0 0 0-51.78153126z"  horiz-adv-x="1024" />

    
    <glyph glyph-name="table" unicode="&#59015;" d="M928 736H96c-17.7 0-32-14.3-32-32v-640c0-17.7 14.3-32 32-32h832c17.7 0 32 14.3 32 32V704c0 17.7-14.3 32-32 32z m-40-208H676V664h212v-136z m0-224H676V464h212v-160zM412 464h200v-160H412V464z m200 64H412V664h200v-136z m-476-64h212v-160H136V464z m0 200h212v-136H136V664z m0-424h212v-136H136V240z m276 0h200v-136H412V240z m476-136H676V240h212v-136z"  horiz-adv-x="1024" />

    
    <glyph glyph-name="quote" unicode="&#59131;" d="M231.453125 102.75H366.98046875l89.47265625 169.8046875V665.25h-281.25v-392.6953125H310.73046875L231.453125 102.75z m393.75 0H760.73046875l87.890625 169.8046875V665.25H568.953125v-392.6953125h144.140625L625.203125 102.75z"  horiz-adv-x="1024" />

    
    <glyph glyph-name="cell-split" unicode="&#59069;" d="M893.778125 376.45520834H692.065625v51.75h201.7125l-42.24375 42.24375001q-8.446875 7.396875-8.446875 17.9625 0 10.55625001 7.921875 18.478125 7.921875 7.921875 18.4875 7.921875 10.55625001 0 17.953125-8.446875L992 401.80520834 887.45 297.25520833999997q-8.45625001-7.396875-18.4875-7.396875t-17.953125 7.3875q-7.921875 7.3875-7.921875 17.95312501t8.446875 19.0125l42.24375 42.24374999z m-763.55625 51.75h202.77187499v-51.75H130.221875l43.29375-42.24374999q8.446875-8.446875 8.446875-19.0125 0-10.55625001-8.446875-17.95312501-8.446875-7.3875-18.478125-7.3875-10.03125001 0-17.428125 7.396875L32 401.80520834l105.609375 104.55937501q7.396875 8.446875 17.428125 8.446875t18.478125-7.92187501q8.446875-7.921875 8.446875-18.47812499 0-10.55625001-9.496875-17.9625l-42.24375-42.24375001z m745.603125-303.103125h51.75v-68.64375q0-30.628125-20.0625-49.640625-20.0625-19.003125-48.58125001-20.0625H620.253125q-29.56875001 1.059375-48.58125 20.0625t-20.071875 49.640625V726.03020834q1.059375 30.628125 20.071875 49.63125001Q590.684375 794.67395835 620.253125 795.73333334h238.67812499q28.51875001-1.059375 48.58125001-20.07187499 20.0625-19.003125 20.0625-49.63125001v-68.64374999h-51.75V726.03020834q0 7.396875-4.753125 12.675t-12.14062499 5.278125H620.253125q-7.396875 0-12.15-4.753125-4.753125-4.753125-4.753125-13.2v-669.571875q1.059375-16.89375001 16.903125-17.953125h238.67812499q6.3375 0 11.61562501 4.753125 5.278125 4.753125 5.278125 13.2v68.64375001z m-778.35 0h51.75v-68.64375q1.059375-16.89375001 16.903125-17.953125h238.67812499q6.3375 0 11.61562501 5.803125 5.278125 5.8125 5.278125 12.15V726.03020834q-1.05 16.89375001-16.89374999 17.953125H166.128125q-7.396875 0-12.15-5.8125-4.753125-5.8125-4.753125-12.140625v-70.7625h-51.75V726.03020834q0 30.628125 19.5375 49.63125001Q136.55 794.67395835 166.128125 795.73333334h238.67812501q28.509375-1.059375 48.04687499-20.07187499 19.546875-19.003125 20.596875-49.63125001v-669.571875q-1.05-30.628125-20.596875-49.640625-19.5375-19.003125-48.04687499-20.0625H166.128125q-29.578125 1.059375-49.115625 20.0625t-19.5375 49.640625v68.64375001z"  horiz-adv-x="1024" />

    
    <glyph glyph-name="cell-merge" unicode="&#58886;" d="M468.93359375 630.09375V735.55898437C468.93359375 759.82470703 449.25751953 779.5078125 424.98564453 779.5078125H161.31904297C137.04101562 779.5078125 117.37109375 759.83613281 117.37109375 735.56865234v-703.13730468C117.37109375 8.169140620000007 137.04716797-11.5078125 161.31904297-11.5078125h263.66660156C449.26367187-11.5078125 468.93359375 8.169140620000007 468.93359375 32.44101563000004V137.90625h-56.25v-66.796875c0-14.56259766-11.80371094-26.3671875-26.36806641-26.3671875H199.98916016C185.42568359 44.7421875 173.62109375 56.5546875 173.62109375 71.10673827999995V696.89326172C173.62109375 711.45410156 185.42480469 723.2578125 199.98916016 723.2578125h186.32636718c14.56347656 0 26.36806641-11.81074219 26.36806641-26.37597656V630.09375h56.25zM555.06640625 137.90625v-105.47490234C555.06640625 8.169140620000007 574.74248047-11.5078125 599.01435547-11.5078125h263.66660156C886.95898438-11.5078125 906.62890625 8.169140620000007 906.62890625 32.44101563000004V735.55898437C906.62890625 759.82470703 886.95283203 779.5078125 862.68095703 779.5078125H599.01435547C574.73632813 779.5078125 555.06640625 759.83613281 555.06640625 735.56865234V630.09375h56.25v66.79951172C611.31640625 711.45410156 623.12011719 723.2578125 637.68447266 723.2578125h186.32636718c14.56347656 0 26.36806641-11.81074219 26.36806641-26.37597656V71.109375C850.37890625 56.547656250000045 838.57519531 44.7421875 824.01083984 44.7421875H637.68447266C623.12099609 44.7421875 611.31640625 56.5546875 611.31640625 71.10673827999995V137.90625h-56.25zM653.94775391 356.75390625h149.06513672v56.25H655.578125l24.57421875 24.57509766c10.29814453 10.29726563 10.29550781 26.99560547-0.00351562 37.29550781l-2.47500001 2.47412109c-10.30078125 10.30078125-27.00087891 10.29902344-37.29550781 0.00527344L547.15625 384.13183594l0.06855469-0.06855469-0.06855469-0.06767578L640.37744141 290.77441406c10.29726563-10.29814453 26.99560547-10.29550781 37.29550781 0.00439453l2.475 2.475c10.29990234 10.29990234 10.29814453 27 0.00439453 37.29462891L653.94775391 356.75390625zM370.14716797 356.75390625H221.08203125v56.25h147.43652344l-24.57597657 24.57509766c-10.29726563 10.29726563-10.29462891 26.99560547 0.00527344 37.29550781l2.475 2.47412109c10.29990234 10.30078125 27 10.29902344 37.29462891 0.00527344L476.93867187 384.13183594l-0.06767578-0.06855469 0.06767578-0.06767578L383.71748047 290.77441406c-10.29726563-10.29814453-26.99560547-10.29550781-37.29462891 0.00439453l-2.475 2.475c-10.30078125 10.29990234-10.29902344 27-0.00527343 37.29462891L370.14716797 356.75390625z"  horiz-adv-x="1024" />

    
    <glyph glyph-name="insert-column-right" unicode="&#59650;" d="M856 784h-80c-4.4 0-8-3.6-8-8v-784c0-4.4 3.6-8 8-8h80c4.4 0 8 3.6 8 8V776c0 4.4-3.6 8-8 8zM656 784H192c-17.7 0-32-14.9-32-33.3v-733.3c0-18.4 14.3-33.3 32-33.3h464c17.7 0 32 14.9 32 33.3V750.7c0 18.4-14.3 33.3-32 33.3zM392 56H232V232h160v-176z m0 240H232V472h160v-176z m0 240H232V712h160v-176z m224-480H456V232h160v-176z m0 240H456V472h160v-176z m0 240H456V712h160v-176z"  horiz-adv-x="1024" />

    
    <glyph glyph-name="insert-row-below" unicode="&#58964;" d="M904 128H120c-4.4 0-8-3.6-8-8v-80c0-4.4 3.6-8 8-8h784c4.4 0 8 3.6 8 8v80c0 4.4-3.6 8-8 8z m-25.3 608H145.3c-18.4 0-33.3-14.3-33.3-32v-464c0-17.7 14.9-32 33.3-32h733.3c18.4 0 33.3 14.3 33.3 32V704c0.1 17.7-14.8 32-33.2 32zM360 280H184V440h176v-160z m0 224H184V664h176v-160z m240-224H424V440h176v-160z m0 224H424V664h176v-160z m240-224H664V440h176v-160z m0 224H664V664h176v-160z"  horiz-adv-x="1024" />

    
    <glyph glyph-name="insert-column-left" unicode="&#58967;" d="M248 784h-80c-4.4 0-8-3.6-8-8v-784c0-4.4 3.6-8 8-8h80c4.4 0 8 3.6 8 8V776c0 4.4-3.6 8-8 8z m584 0H368c-17.7 0-32-14.9-32-33.3v-733.3c0-18.4 14.3-33.3 32-33.3h464c17.7 0 32 14.9 32 33.3V750.7c0 18.4-14.3 33.3-32 33.3zM568 56H408V232h160v-176z m0 240H408V472h160v-176z m0 240H408V712h160v-176z m224-480H632V232h160v-176z m0 240H632V472h160v-176z m0 240H632V712h160v-176z"  horiz-adv-x="1024" />

    
    <glyph glyph-name="insert-row-above" unicode="&#58883;" d="M878.7 560H145.3c-18.4 0-33.3-14.3-33.3-32v-464c0-17.7 14.9-32 33.3-32h733.3c18.4 0 33.3 14.3 33.3 32V528c0.1 17.7-14.8 32-33.2 32zM360 104H184V264h176v-160z m0 224H184V488h176v-160z m240-224H424V264h176v-160z m0 224H424V488h176v-160z m240-224H664V264h176v-160z m0 224H664V488h176v-160z m64 408H120c-4.4 0-8-3.6-8-8v-80c0-4.4 3.6-8 8-8h784c4.4 0 8 3.6 8 8v80c0 4.4-3.6 8-8 8z"  horiz-adv-x="1024" />

    
    <glyph glyph-name="delete-column" unicode="&#59918;" d="M136 796c0 19.9-16.1 36-36 36s-36-16.1-36-36v-284c0-35.3 28.7-64 64-64h216v72H136V796zM924 832c-19.9 0-36-16.1-36-36v-276H680v-72h216c35.3 0 64 28.7 64 64V796c0 19.9-16.1 36-36 36zM448 292h128c17.7 0 32 14.3 32 32V800c0 17.7-14.3 32-32 32H448c-17.7 0-32-14.3-32-32v-476c0-17.7 14.3-32 32-32zM647.5 217.5c-14 14-36.8 14-50.8 0L512 132.8l-84.7 84.7c-14 14-36.8 14-50.8 0s-14-36.8 0-50.8l84.7-84.7-84.7-84.7c-14-14-14-36.8 0-50.8s36.8-14 50.8 0l84.7 84.7 84.7-84.7c14-14 36.8-14 50.8 0s14 36.8 0 50.8L562.8 82l84.7 84.7c14 14 14 36.7 0 50.8z"  horiz-adv-x="1024" />

    
    <glyph glyph-name="delete-row" unicode="&#59143;" d="M64 796c0 19.9 16.1 36 36 36h284c35.3 0 64-28.7 64-64v-216h-72V760H100c-19.9 0-36 16.1-36 36z m312-580h72v-216c0-35.3-28.7-64-64-64H100c-19.9 0-36 16.1-36 36s16.1 36 36 36h276V216z m228 232v-128c0-17.7-14.3-32-32-32H96c-17.7 0-32 14.3-32 32V448c0 17.7 14.3 32 32 32h476c17.7 0 32-14.3 32-32z m345.5-148.7c14-14 14-36.8 0-50.8s-36.8-14-50.8 0L814 333.2l-84.7-84.7c-14-14-36.8-14-50.8 0s-14 36.8 0 50.8l84.7 84.7-84.7 84.7c-14 14-14 36.8 0 50.8s36.8 14 50.8 0l84.7-84.7 84.7 84.7c14 14 36.8 14 50.8 0s14-36.8 0-50.8L864.8 384l84.7-84.7z"  horiz-adv-x="1024" />

    
    <glyph glyph-name="back-color" unicode="&#58890;" d="M341.00878881 440.08064802l214.92553761-124.05761769 177.74780249 307.83691432c15.95214869 27.68554688 8.40454102 60.41381836-14.56787135 73.66333007L589.91503906 772.07649738c-22.97241236 13.24951172-55.10742213 3.46069336-71.09252929-24.19189428l-177.81372096-307.83691431z m-55.04150365 0.46142553a32.95898463 32.95898463 0 0 0 3.6914065 9.45922826l7.91015625 13.64501954c0.19775391 0.39550781 0.39550781 0.79101563 0.65917943 1.15356495l177.78076172 307.83691356c29.26757813 50.65795924 91.29638697 69.57641576 138.59252905 42.28637746l129.23217773-74.58618189c47.29614283-27.3229983 61.92993189-90.50537135 32.62939453-141.19628907l-186.25122045-322.66845728a32.95898463 32.95898463 0 0 0-6.36108424-7.91015625c-16.74316432-22.34619141-36.18896484-38.75976563-58.33740234-49.17480418-29.0039065-13.67797877-53.12988307-18.81958033-88.79150391-43.90136719h-0.06591771l-24.91699219-43.1433108-190.66772486 33.48632787 58.07373072 100.62377981-0.23071314 0.13183543c3.92211889 43.40698242-3.6914065 66.87377955-6.36108348 98.87695312-2.04345678 24.38964818 2.43896459 49.40551732 13.44726562 75.08056666z m238.06274388-163.90502904l-201.14868113 116.14746068c-1.35131811-8.0090332-1.6809082-15.72143555-1.05468801-23.20312474 0.56030248-6.78955053 1.21948267-12.128906 2.9663086-24.45556666 2.90039088-20.59936549 4.48242213-35.52978541 4.74609375-50.65795924l106.0949707-61.2707517c11.66748047 6.49291967 23.56567408 12.03002904 37.57324219 17.79785156l8.60229492 3.4936526c11.53564428 4.6472168 16.47949193 6.72363281 22.64282226 9.62402293 6.82250977 3.19702174 13.34838867 7.34985377 19.57763672 12.52441457z m-202.03857371-34.93652369l-22.74169922-39.38598658 86.87988256-15.22705079 7.61352539 13.18359401-71.71875025 41.42944336zM570.33740234 650.22713189a32.95898463 32.95898463 0 1 0 57.08496119-32.95898387l-98.87695312-171.25488281a32.95898463 32.95898463 0 1 0-57.08496119 32.95898387l98.87695312 171.25488281z"  horiz-adv-x="1024" />

    
    <glyph glyph-name="order-list" unicode="&#59128;" d="M301.5 657.5h575.1c11.5 0 19.2 9.1 19.2 22.8 0 13.7-7.7 22.8-19.2 22.8H301.5c-11.5 0-19.2-9.1-19.2-22.8 0.1-13.7 7.7-22.8 19.2-22.8z m575.2-250.7H301.5c-11.5 0-19.2-9.1-19.2-22.8 0-13.7 7.7-22.8 19.2-22.8h575.1c11.5 0 19.2 9.1 19.2 22.8 0.1 13.7-7.6 22.8-19.1 22.8z m0-296H301.5c-11.5 0-19.2-9.1-19.2-22.8 0-13.7 7.7-22.8 19.2-22.8h575.1c11.5 0 19.2 9.1 19.2 22.8 0.1 13.7-7.6 22.8-19.1 22.8z m0 0M129.6 318.2c40.8 40.6 64.9 71.9 64.9 97.6 0 16.9-8.3 27.1-22.5 27.1-11 0-20.1-7.9-27.6-17.1l-16.2 18c13.8 16.2 27.2 25.3 47.7 25.3 28.4 0 47.2-20.3 47.2-51.4 0-30.2-22.5-62.7-49.9-92.4 7.5 0.9 17.4 1.8 24.3 1.8h32.6v-28H129.6v19.1zM117.2 26.8l13.9 20.6c8.8-9.5 19.7-16.8 33.1-16.8 15.1 0 25.3 8.2 25.3 22.8 0 16.2-8.6 26.1-41 26.1V103c27.3 0 36.1 10.4 36.1 25 0 12.8-7.2 20.4-19.9 20.6-10.6-0.2-19.3-5.8-28.1-14.6l-15.1 19.9c12.9 12.4 27.1 20.1 44.6 20.1 28.7 0 48.2-15.5 48.2-43.6 0-17.7-9-30.5-24.9-37.4v-1.1c16.9-5.1 29.7-18.8 29.7-40.3 0-30.1-23.9-47.6-52.2-47.6-23.4 0-39.2 9.7-49.7 22.8zM127.9 623.3h36.4V730.8h-30.7v20.9c17 3.2 28.7 7.6 39.4 14.2h25v-142.7h31.9v-27.3h-102v27.4z"  horiz-adv-x="1024" />

    
    <glyph glyph-name="list" unicode="&#58949;" d="M163.95377778 648.192m-62.464 0a62.464 62.464 0 1 1 124.928 0 62.464 62.464 0 1 1-124.928 0ZM163.95377778 383.20355555000003m-62.464 0a62.464 62.464 0 1 1 124.928 0 62.464 62.464 0 1 1-124.928 0ZM163.95377778 118.21511110999995m-62.464 0a62.464 62.464 0 1 1 124.928 0 62.464 62.464 0 1 1-124.928 0ZM887.01155555 610.6453333300001H337.12355555c-20.59377778 0-37.54666667 16.83911111-37.54666666 37.54666667 0 20.59377778 16.83911111 37.54666667 37.54666666 37.54666667h549.888c20.59377778 0 37.54666667-16.83911111 37.54666667-37.54666667 0-20.59377778-16.83911111-37.54666667-37.54666667-37.54666667zM887.01155555 345.65688889H337.12355555c-20.59377778 0-37.54666667 16.83911111-37.54666666 37.54666666 0 20.59377778 16.83911111 37.54666667 37.54666666 37.54666667h549.888c20.59377778 0 37.54666667-16.83911111 37.54666667-37.54666667 0-20.59377778-16.83911111-37.54666667-37.54666667-37.54666666zM887.01155555 80.78222222H337.12355555c-20.59377778 0-37.54666667 16.83911111-37.54666666 37.54666667 0 20.59377778 16.83911111 37.54666667 37.54666666 37.54666666h549.888c20.59377778 0 37.54666667-16.83911111 37.54666667-37.54666666s-16.83911111-37.54666667-37.54666667-37.54666667z"  horiz-adv-x="1024" />

    
    <glyph glyph-name="font-color" unicode="&#58940;" d="M809.09653333 186.57066667000004c-11.65084445 5.82542222-23.30168889 17.47626667-29.12711111 29.12711112-5.82542222 11.65084445-17.47626667 40.77795555-34.95253333 75.73048888L535.30168889 827.36711111 488.69831111 827.36711111l-198.06435556-518.46257777c-11.65084445-34.95253333-29.12711111-64.07964445-40.77795555-81.55591111-11.65084445-17.47626667-23.30168889-34.95253333-40.77795555-40.77795556-11.65084445-5.82542222-29.12711111-11.65084445-46.60337778-11.65084444L162.47466667 128.31644444000005l238.84231111 0 0 46.60337779c-23.30168889 0-40.77795555 0-52.4288 5.82542222-17.47626667 5.82542222-23.30168889 17.47626667-23.30168889 40.77795556 0 11.65084445 5.82542222 29.12711111 11.65084444 52.4288l17.47626667 46.60337777 221.36604445 0 34.95253333-81.55591112c5.82542222-11.65084445 5.82542222-23.30168889 5.82542222-29.1271111 0-11.65084445-5.82542222-23.30168889-17.47626667-29.12711111-11.65084445-5.82542222-34.95253333-5.82542222-58.25422222-5.82542222L541.12711111 128.31644444000005 861.52533333 128.31644444000005l0 46.60337779C838.22364445 174.91982223000002 820.74737778 180.74524444999997 809.09653333 186.57066667000004zM372.18986667 367.15875556000003l93.20675555 238.84231111 93.20675556-238.84231111L372.18986667 367.15875556000003z"  horiz-adv-x="1024" />

    
    <glyph glyph-name="bold" unicode="&#59913;" d="M437.17142832 70.09285752000005q37.15714248-16.07142832 70.32857168-16.07142832 188.80714248 0 188.80714248 168.23571416 0 57.27857168-20.57142832 90.38571416-13.56428584 22.11428584-30.85714248 37.15714248t-33.87857168 23.33571416-40.43571416 12.53571416-42.17142832 5.27142832-47.44285752 1.02857168q-36.64285752 0-50.72142832-5.01428584 0-26.61428584-0.25714248-79.84285752t-0.25714248-79.32857168q0-3.98571416-0.51428584-33.87857168t-0.25714248-48.47142832 2.25-41.91428584 6.04285752-33.42857168zM430.16428584 444.75q21.08571416-3.53571416 54.77142832-3.53571416 41.20714248 0 71.80714248 6.55714248t55.22142833 22.37142832 37.41428583 44.93571416 12.79285752 71.29285752q0 35.16428584-14.59285752 61.52142832t-39.66428583 41.20714248-54.25714249 21.85714249-62.29285751 7.00714247q-25.13571416 0-65.31428585-6.55714247 0-25.13571416 1.99285752-75.85714249t1.99285752-76.30714248q0-13.56428584-0.25714248-40.17857167t-0.25714248-39.66428585q0-23.07857168 0.51428584-34.65zM158.42857168-1.7142858400000023l1.02857168 47.18571416q7.52142833 1.99285752 42.68571416 8.03571416t53.22857168 13.56428584q3.53571416 6.04285752 6.3 13.56428584t4.24285752 16.84285752 2.76428584 16.32857168 1.47857168 18.83571416 0.25714248 17.1l0 32.91428584q0 493.2-11.05714248 514.8-1.99285752 3.98571416-11.05714248 7.26428584t-22.37142832 5.52857168-24.87857168 3.53571416-24.36428584 2.25-15.3 1.47857168l-1.99285752 41.65714248q49.24285752 1.02857168 170.74285752 5.78571416t187.32857168 4.75714248q11.57142832 0 34.39285751-0.25714248t33.87857169-0.25714248q35.16428584 0 68.52857168-6.55714248t64.54285751-21.08571416 54.25714248-35.67857168 37.15714249-52.45714248 14.07857167-69.04285752q0-26.1-8.29285752-47.95714248t-19.60714248-36.19285752-32.4-28.86428584-36.64285751-22.62857168-42.17142832-20.05714248q77.33571416-17.55 128.82857167-67.30714248t51.49285752-124.52142833q0-50.20714248-17.55-90.12857167t-46.92857167-65.57142833-69.3-42.94285751-82.09285752-24.36428585-88.39285753-7.00714247q-22.11428584 0-66.27857167 1.47857168t-66.27857168 1.47857167q-53.22857168 0-154.15714248-5.52857167t-116.03571417-6.04285752z"  horiz-adv-x="1024" />

    
    <glyph glyph-name="italic" unicode="&#59234;" d="M828.40625 753.140625L828.40625 700.40625 722.9375 700.40625 459.265625 67.59375 564.734375 67.59375 564.734375 14.859375 195.59375 14.859375 195.59375 67.59375 301.0625 67.59375 564.734375 700.40625 459.265625 700.40625 459.265625 753.140625Z"  horiz-adv-x="1024" />

    
    <glyph glyph-name="underlined" unicode="&#60310;" d="M172.96042667 44.96042666999995l678.12769223 0 0-97.86709334-678.12769223 0 0 97.86709334zM512 140.49735110999995q-120.58624 0-205.92867555 85.34243556t-85.34243556 205.92867555l0 389.13820445 120.58624 0 0-389.13820445q0-70.53615445 50.05008554-119.46970112t120.58624-48.93354667 120.58624 48.93354667 50.05008555 119.46970112l0 389.13820445 120.58624 0 0-389.13820445q0-120.58624-85.34243555-205.92867555t-205.92867556-85.34243556z"  horiz-adv-x="1024" />

    
    <glyph glyph-name="code" unicode="&#59173;" d="M336 112c-12.286 0-24.57 4.688-33.942 14.058l-224 224c-18.746 18.746-18.746 49.138 0 67.882l224 224c18.746 18.744 49.136 18.744 67.882 0 18.742-18.744 18.742-49.136 0-67.882L179.882 384l190.058-190.058c18.742-18.746 18.742-49.136 0-67.882C360.566 116.688 348.286 112 336 112zM688 112c12.286 0 24.57 4.688 33.942 14.058l224 224c18.746 18.746 18.746 49.138 0 67.882l-224 224c-18.746 18.744-49.136 18.744-67.882 0-18.742-18.744-18.742-49.136 0-67.882L844.118 384l-190.058-190.058c-18.742-18.746-18.742-49.136 0-67.882C663.434 116.688 675.714 112 688 112z"  horiz-adv-x="1024" />

    


  </font>
</defs>
</svg>
